PathFileType	4	(X/Y/Z)	Patient4_TMGait_0pt5_01_right_32.trc.trc
DataRate	CameraRate	NumFrames	NumMarkers	Units	OrigDataRate	OrigDataStartFrame	OrigNumFrames
75.268817204301	75.268817204301	7	33	mm	75.268817204301	106	       141
Frame#	Time	L.ASIS			Sacral			L.Shoulder			Chest			R.Shoulder			Neck			R.ASIS			R.Thigh.Superior			R.Thigh.Lateral			R.Thigh.Inferior			R.Patella			L.Thigh.Superior			L.Thigh.Lateral			L.Thigh.Inferior			L.Patella			L.Shank.Superior			L.Shank.Lateral			L.Shank.Inferior			R.Shank.Superior			R.Shank.Lateral			R.Shank.Inferior			R.Heel			R.Midfoot.Superior			R.Midfoot.Lateral			R.Toe			L.Heel			L.Midfoot.Lateral			L.Midfoot.Superior			L.Toe			L.Elbow			L.Wrist			R.Elbow			R.Wrist			
		X1	Y1	Z1	X2	Y2	Z2	X3	Y3	Z3	X4	Y4	Z4	X5	Y5	Z5	X6	Y6	Z6	X7	Y7	Z7	X8	Y8	Z8	X9	Y9	Z9	X10	Y10	Z10	X11	Y11	Z11	X12	Y12	Z12	X13	Y13	Z13	X14	Y14	Z14	X15	Y15	Z15	X16	Y16	Z16	X17	Y17	Z17	X18	Y18	Z18	X19	Y19	Z19	X20	Y20	Z20	X21	Y21	Z21	X22	Y22	Z22	X23	Y23	Z23	X24	Y24	Z24	X25	Y25	Z25	X26	Y26	Z26	X27	Y27	Z27	X28	Y28	Z28	X29	Y29	Z29	X30	Y30	Z30	X31	Y31	Z31	X32	Y32	Z32	X33	Y33	Z33	

106	43.465000000000	819.188722144857	960.382183546060	294.071690232949	598.521664761683	1011.830958122269	437.999536174100	795.152955196570	1414.477931637016	226.750284228264	883.827717207831	1363.718073621554	402.352867803824	788.150512087471	1459.419543855193	560.167016350982	788.482200264306	1494.091934420937	368.504565379501	816.498667259153	949.900071408474	567.953372303918	898.185777349902	784.066182926799	549.000602555614	858.680128846405	662.671817776612	625.658589949773	951.390650842225	625.781947078880	549.813360271503	985.145677527235	532.010818456803	573.992091461474	848.401678309555	748.421317400210	321.985826525130	751.331693479235	639.449869385025	262.075188684085	829.951756073300	556.524157959593	323.919647980252	823.778671796435	487.958255971970	333.503647682861	796.860276202463	417.230163233616	328.130723121447	702.277932887289	303.269239434015	284.124666791787	756.072317837759	194.191931078028	357.865391356512	950.586366842997	442.730046661895	582.673652332327	870.575430835681	345.921138114989	644.884251898011	919.532618593318	245.598131697995	598.201787106954	789.737388271378	76.557826791886	569.808844934892	957.055130337376	131.230302336141	616.266485348642	868.691896523349	68.007827513263	649.252140530834	1074.807965681050	81.605337587619	654.002770361883	627.978684371374	37.807047689416	406.515130087635	703.240609688811	34.164722261213	326.200379261283	785.822823867746	96.725569056587	352.022279916667	914.452901565913	47.060119336347	328.962262206714	793.211227129582	1056.765005571268	118.547685989711	912.708406413042	824.211093058572	111.432617326638	652.997760932423	1158.423840946414	705.959811837794	652.877891799794	898.127983534191	740.688578629908	
107	43.478285714286	818.289676352969	960.199211757754	294.468065965551	597.354877659412	1011.673443344961	437.797109975121	794.641281042535	1413.796731249523	226.310460735934	882.783103786801	1363.392963397919	402.264769269990	786.742461776634	1459.532869935861	559.642119025413	787.569185100872	1493.756823206625	367.903953089106	814.941947548485	949.876946993965	568.394015685595	895.814380183650	783.698336259597	549.441290820413	856.319553256432	662.443849642455	626.324173365152	948.744867693793	625.515202844697	550.117300862086	983.493208013569	533.802196655018	573.825420890135	845.970772652800	747.712129571653	322.459328155364	747.740631174382	639.456155905330	262.241723988735	825.275234908234	555.896495190878	324.203863942460	818.505470778929	487.557367294870	333.931817382500	791.498688290352	416.956384668848	328.505350285993	696.664701388608	303.311205947826	284.225978950778	749.939602195309	194.032739913181	358.084304987270	952.993209724064	444.453563376683	583.168250273578	878.391475921755	344.260773861606	646.790964853982	931.703633727418	246.062614866512	599.905976650454	809.398553366585	71.802946162899	573.701915607981	975.429269169683	132.113373996559	617.505835515001	890.019373152367	65.582656186727	651.713414962342	1095.667296165361	86.512386905090	652.973056056552	621.339264580719	37.824901286608	406.483395234498	696.574730969757	34.181808061374	326.244703277684	779.198777940933	96.681714374933	352.099466126761	907.788592638814	46.958490518412	328.952740895208	794.576533634537	1055.910778984438	118.696068407698	916.144087698089	824.411336808910	112.356364497556	648.251437819210	1160.346858008176	705.351483716882	640.523704266818	900.840616810325	744.249760464779	
108	43.491571428571	817.443512704437	960.052309082769	294.937557919135	596.221350855146	1011.496743574637	437.725830991350	794.089056331006	1413.111973350208	226.062119986754	881.770958618119	1363.033259447695	402.317752057382	785.446594715769	1459.633316634906	559.309803256285	786.705559063937	1493.403233394370	367.501065046957	813.466845252303	949.805249067221	568.945093149665	893.544569366482	783.245843540568	550.062795320146	853.960014986061	662.098629692277	627.085670886999	946.282545432036	625.152085500505	550.716092522027	981.793937704152	535.334023750435	573.816039429980	843.532699970543	746.986388546021	322.980515169818	744.086035267574	639.477330372792	262.516822540872	820.471109006233	555.287305600475	324.619672117290	813.107928980520	487.183578505400	334.473312767255	786.011802751732	416.716898593172	328.964049420527	690.968572553154	303.373965767347	284.379723252972	743.749720303109	193.893233000814	358.342601025202	955.056680852892	446.116210994869	583.646373964824	885.575176603904	343.036647479858	648.480863826287	942.777808571600	246.988138087447	601.305783937849	827.490863908889	68.381372776118	577.014561643415	992.201290344593	133.526489897185	618.287308003090	909.589901255000	64.137334387826	653.546483853177	1114.517597965482	91.536346737618	651.479491843280	614.685680640504	37.839795106288	406.455364625085	689.898448465446	34.198154250701	326.292805805686	772.556896246508	96.647232290426	352.180125654741	901.108770322575	46.881969813665	328.944029200696	795.712916819137	1055.043263240403	119.065620364666	919.473270941657	824.677070130290	113.555387947370	643.954602514064	1162.218169741538	705.104194786693	629.791979550232	903.692672735552	747.751511198896	
109	43.504857142857	816.653176361599	959.937572475189	295.479234824858	595.134127524539	1011.297663718495	437.787814657979	793.502602396011	1412.446143767518	226.009954710990	880.790444593797	1362.654317152875	402.517449726538	784.247796141756	1459.723709476699	559.178129303915	785.885860609434	1493.042114918692	367.300955055666	812.096262020075	949.694663385159	569.602139422391	891.458065333843	782.755460006103	550.858332192122	851.702994011422	661.653839300528	627.908577937394	944.096942493560	624.731938083763	551.561666690382	980.155602294714	536.611336324860	573.934011968218	841.075559759161	746.246005761647	323.578497498133	740.372180970332	639.520051976487	262.892129670509	815.544383336451	554.700876965275	325.162056974676	807.584955553106	486.834205022490	335.106971946879	780.393983801250	416.517916559379	329.486299526037	685.172395077730	303.466005859584	284.580088320374	737.494915339551	193.780370803256	358.625487251339	956.805683038163	447.665499726947	584.082858788439	892.034195721131	342.184259177740	649.931130571634	952.611139577072	248.215930352792	602.391984668602	843.697260052609	66.068475986316	579.724186667518	1007.123623554266	135.286299829726	618.649897306739	927.089259096279	63.460821799919	654.782543306861	1131.145334587854	96.468773503696	649.637144042139	608.017281257470	37.855492033501	406.434461284147	683.212694345695	34.214831562171	326.343482835856	765.899764636941	96.621599078214	352.260587569803	894.415811346190	46.825609479595	328.938463352615	796.647791856296	1054.181505959619	119.669803957848	922.677816930002	825.008669326554	115.025531340408	640.119796950260	1164.019333100088	705.234468326508	620.715154636824	906.540575351417	751.186386831542	
110	43.518142857143	815.921131093858	959.845776506697	296.092498396160	594.110118850418	1011.068163102471	437.991259738228	792.885837251270	1411.816653687709	226.158717029773	879.839772082915	1362.268187053339	402.869426571954	783.129039743809	1459.798847592438	559.254846382823	785.100588171795	1492.679023103008	367.308828224080	810.857129112926	949.545283265840	570.359369361485	889.625902138935	782.257809997477	551.802404994236	849.641335966611	661.117398003557	628.749346070309	942.246992632298	624.275055401208	552.574907336855	978.665022025268	537.633861258113	574.130074996494	838.594983088756	745.490462227278	324.272859574349	736.609349847617	639.587421338564	263.355123900943	810.515254801447	554.138784160103	325.813116464408	801.951907938782	486.503686909205	335.804432143178	774.655058103761	416.361789459501	330.047261598817	679.269693770041	303.594625944532	284.818900325750	731.174950694090	193.699123022897	358.916953953667	958.260753553650	449.029333081520	584.446163791098	897.681503135573	341.607664206348	651.122555170204	961.076442587837	249.559000463769	603.159685856248	857.739055659603	64.597044196200	581.823449422178	1019.981379336037	137.180750540240	618.647277621572	942.240670630679	63.308822671353	655.472630218066	1145.369745706868	101.080135234735	647.574392931333	601.334984691029	37.876329433495	406.423262696011	676.518910506872	34.233376408283	326.395368703722	759.231040698401	96.603753738944	352.337447219012	887.712722335123	46.783433100036	328.937883581420	797.406722524009	1053.343036297074	120.516767702203	925.741660239366	825.405029607170	116.759984614069	636.750984463173	1165.721558451360	705.745921230572	613.297308868439	909.250095445032	754.553073483996	
111	43.531428571429	815.251304178045	959.764119020413	296.775669692280	593.169902263373	1010.795613835430	438.349358726667	792.238776619345	1411.233697804206	226.513734759872	878.916703580451	1361.882482320839	403.379283460763	782.074177020375	1459.845345916522	559.547589430810	784.336172349551	1492.313221123848	367.531545302044	809.779528942603	949.346381801664	571.209085833594	888.103694193226	781.763185058223	552.853094929178	847.850955591980	660.486628477923	629.560167678932	940.755630572197	623.780490593228	553.657791559199	977.376866989207	538.391525248588	574.344230264126	836.096802174687	744.715514402848	325.066555641374	732.811628864341	639.678677799173	263.890414469643	805.415556614652	553.598931080125	326.543319049581	796.237296912742	486.183768614342	336.533508996697	768.817927829737	416.246616312571	330.620417879732	673.264604423402	303.764634588187	285.086162379655	724.796183140253	193.651545229987	359.201669298510	959.428405368808	450.119979222556	584.703376428272	902.434467842269	341.185899491009	652.037865971237	968.066306757549	250.816783007170	603.606509213233	869.387453427712	63.684993071103	583.314252306779	1030.603498442477	138.982378528753	618.339073522137	954.816311899827	63.422498273257	655.675700084903	1157.049059516056	105.125635628891	645.413715026212	594.640958571774	37.906423517439	406.422920911015	669.818670135109	34.255487293834	326.446917867328	752.554733743978	96.592011307437	352.407916942574	881.002493206575	46.749630099304	328.943333831609	798.012214115198	1052.542023679123	121.607324674502	928.652716361638	825.863467866041	118.748135022065	633.842600920265	1167.287420514037	706.629264929911	607.516613402967	911.702506692501	757.854927666462	
112	43.544714285714	814.650723459140	959.677331412640	297.525372787587	592.337432866214	1010.463230236485	438.878858345628	791.556859473717	1410.698889633310	227.081397798427	878.019335476024	1361.499531656639	404.052797429683	781.070416576129	1459.842185300549	560.064301740812	783.575922949052	1491.937254910575	367.978563411539	808.895514547892	949.076463363647	572.141514709633	886.927960831788	781.258156919956	553.957059905577	846.382062554733	659.747063551180	630.294045462847	939.610186775807	623.224292783824	554.707211052205	976.303909247394	538.858816309783	574.514031707533	833.598922897799	743.912704719705	325.942797632661	728.995884138226	639.789061614981	264.481473713748	800.284974864962	553.074988881762	327.315020946875	790.479191806875	485.863727899089	337.262495718321	762.915846761956	416.165895264976	331.180788276018	667.171570631996	303.977053600448	285.371013153594	718.370306311249	193.635858068863	359.466928662774	960.295491014633	450.839524484851	584.825010010643	906.213855867437	340.780593400893	652.660875420109	973.496429272102	251.789977608546	603.732161121912	878.474949535415	63.060169795402	584.204017085510	1038.873890843357	140.463132274873	617.783132844530	964.650187913671	63.547254882808	655.449591167813	1166.089631218083	108.355647222941	643.255466683409	587.938225727283	37.948623475739	406.433086834970	663.113408736052	34.282621855432	326.496442178429	745.874484774973	96.584147136900	352.470159433044	874.287522489523	46.719570313588	328.954924200040	798.482247877109	1051.787792134327	122.933960100010	931.403858965651	826.379911862733	120.974386902952	631.380970842352	1168.672637335281	707.864058614759	603.329197454640	913.798702863563	761.098166237058	
